<?xml version="1.0" standalone="no"?>
<!DOCTYPE svg PUBLIC "-//W3C//DTD SVG 20010904//EN"
 "http://www.w3.org/TR/2001/REC-SVG-20010904/DTD/svg10.dtd">
<svg version="1.0" xmlns="http://www.w3.org/2000/svg"
 width="1013.000000pt" height="957.000000pt" viewBox="0 0 1013.000000 957.000000"
 preserveAspectRatio="xMidYMid meet">
<metadata>
Created by potrace 1.15, written by Peter Selinger 2001-2017
</metadata>
<g transform="translate(0.000000,957.000000) scale(0.100000,-0.100000)"
fill="#000000" stroke="none">
<path d="M4085 9363 c-16 -3 -37 -11 -46 -19 -10 -9 -32 -15 -50 -15 -111 1
-196 7 -207 14 -7 5 -31 0 -57 -13 -35 -17 -48 -19 -64 -10 -12 6 -45 15 -74
20 -50 10 -71 8 -277 -15 -105 -12 -128 -18 -178 -46 -31 -18 -75 -33 -105
-36 -36 -4 -60 -13 -79 -31 -15 -14 -49 -30 -75 -37 -42 -11 -51 -10 -73 5
-20 14 -46 19 -109 19 -94 1 -126 14 -143 62 -9 27 -12 29 -51 23 -47 -7 -53
-13 -107 -105 -55 -93 -103 -133 -191 -159 -53 -16 -82 -31 -104 -55 -16 -17
-42 -40 -57 -49 -15 -10 -30 -31 -33 -47 -4 -16 -24 -43 -46 -61 -32 -27 -43
-45 -55 -92 -8 -33 -13 -70 -9 -83 3 -13 -1 -36 -9 -51 -23 -43 -107 -119
-147 -131 -20 -7 -45 -21 -55 -32 -31 -34 -70 -49 -127 -49 -52 0 -56 -2 -93
-44 -22 -24 -48 -59 -59 -77 -11 -18 -42 -44 -68 -58 -42 -23 -54 -38 -101
-123 -38 -69 -71 -113 -114 -153 -34 -31 -70 -71 -80 -88 -10 -18 -34 -57 -52
-89 -18 -31 -43 -61 -55 -66 -16 -8 -30 -33 -49 -88 l-26 -77 35 -57 c19 -32
35 -66 35 -76 0 -10 -14 -32 -30 -49 l-30 -31 16 -40 c27 -63 14 -180 -29
-274 -19 -41 -37 -95 -41 -119 -8 -51 -78 -141 -127 -161 l-30 -13 29 -31 c17
-17 33 -42 37 -55 10 -34 9 -120 -4 -171 -21 -87 -16 -102 43 -153 30 -26 59
-47 65 -47 5 0 13 -17 17 -37 4 -21 17 -46 31 -56 13 -11 35 -41 49 -69 14
-27 45 -74 69 -104 61 -74 74 -103 82 -176 11 -116 51 -187 135 -243 50 -34
133 -112 282 -266 94 -97 156 -144 222 -168 l56 -21 33 20 c18 11 49 20 69 20
22 0 49 9 67 22 18 14 46 23 72 24 195 6 205 5 278 -16 41 -12 95 -33 121 -46
l47 -24 34 20 c19 11 60 25 93 31 32 6 86 26 119 44 49 26 68 31 103 28 36 -4
48 -1 70 20 35 32 60 37 216 43 145 6 178 -2 233 -53 23 -21 35 -49 53 -116
23 -87 23 -87 73 -116 55 -32 34 -31 277 -12 63 5 118 6 122 2 3 -3 8 -17 10
-30 2 -18 12 -27 35 -33 22 -6 41 -23 63 -54 l30 -46 -14 -76 c-18 -94 -23
-108 -53 -148 -28 -38 -29 -51 -3 -59 18 -6 18 -8 5 -29 -9 -13 -14 -44 -14
-76 1 -43 -2 -57 -17 -67 -63 -41 -61 -34 -31 -104 51 -118 115 -210 171 -243
82 -49 265 -270 266 -321 0 -16 7 -39 15 -49 8 -11 15 -28 15 -37 0 -9 16 -40
35 -69 19 -29 38 -64 41 -79 3 -14 17 -52 31 -83 l26 -57 -26 -35 -27 -35 42
-78 c23 -43 50 -89 60 -102 41 -54 9 -204 -51 -236 -58 -30 -80 -67 -125 -212
-24 -77 -49 -149 -55 -161 -6 -12 -12 -70 -13 -129 -2 -122 10 -163 66 -223
48 -51 125 -165 138 -203 6 -17 24 -46 39 -62 16 -17 29 -35 29 -39 0 -5 15
-25 33 -46 32 -35 34 -41 41 -141 5 -68 14 -119 27 -148 10 -24 19 -54 19 -66
0 -12 15 -68 34 -124 35 -108 68 -153 164 -229 23 -18 42 -41 42 -51 0 -10 9
-29 19 -43 11 -13 23 -36 26 -50 4 -14 29 -52 56 -84 47 -56 66 -90 56 -101
-3 -2 -20 -5 -39 -6 -18 -1 -32 -6 -32 -10 1 -5 18 -31 39 -58 31 -42 37 -55
33 -89 -3 -31 0 -39 10 -35 47 18 64 16 102 -9 44 -29 103 -35 135 -12 11 7
49 16 85 20 36 4 85 14 109 22 23 8 67 14 96 13 28 -1 57 1 63 4 5 4 37 3 70
-1 44 -6 67 -5 84 4 13 7 38 13 56 14 18 0 43 6 55 14 12 7 47 16 77 19 77 7
222 87 383 211 70 53 127 101 127 106 0 5 33 44 74 87 49 52 91 87 125 102 47
22 54 31 96 112 49 94 74 187 54 200 -18 10 22 32 151 84 93 36 122 53 153 86
24 27 37 51 37 69 0 15 7 43 15 63 18 44 19 84 6 172 -14 88 -20 106 -38 127
-14 16 -12 20 19 50 18 18 60 53 93 78 32 25 98 84 145 131 88 90 154 131 227
143 32 6 59 25 136 98 100 92 146 150 164 203 6 18 8 72 4 135 -4 58 -4 121 0
140 4 19 13 80 19 135 7 55 14 108 17 117 3 12 -10 31 -37 56 -77 71 -109 234
-66 330 l19 42 -45 58 -45 58 26 75 c15 41 59 130 99 199 41 71 72 137 72 152
0 18 4 26 13 23 15 -6 127 117 148 165 9 19 24 41 33 49 10 8 27 33 38 55 11
23 38 60 59 83 22 24 39 47 39 52 0 10 197 208 291 291 33 30 82 87 106 125
25 39 66 97 91 129 25 33 56 89 70 125 13 36 41 89 62 116 28 36 43 70 55 120
23 101 72 256 113 360 23 59 36 111 38 150 2 33 6 111 10 174 3 62 2 117 -3
121 -4 4 -29 11 -54 14 -45 7 -46 6 -72 -33 -31 -46 -121 -101 -166 -101 -17
0 -42 -6 -54 -14 -12 -8 -38 -17 -57 -21 -19 -4 -49 -21 -67 -38 -26 -25 -43
-31 -90 -35 -44 -4 -69 -13 -106 -38 -72 -50 -96 -46 -170 26 -59 56 -61 60
-43 73 18 14 19 18 7 55 -10 30 -40 66 -110 133 -53 50 -119 113 -147 140 -28
27 -55 49 -60 49 -6 0 -33 7 -61 15 -40 12 -56 23 -72 50 -13 22 -28 35 -41
35 -28 0 -56 49 -70 125 -17 91 -71 167 -162 231 -65 45 -76 57 -97 110 -14
35 -27 92 -31 139 -5 64 -12 89 -33 120 -16 23 -27 53 -27 72 0 30 -5 35 -70
68 -82 41 -120 89 -128 162 -2 27 -11 52 -19 56 -15 9 -123 168 -150 221 -9
17 -29 47 -44 67 -16 20 -29 44 -29 52 0 9 -11 29 -25 45 -31 37 -34 58 -6 40
30 -18 60 23 61 82 0 25 7 77 16 116 l17 70 -78 107 c-43 59 -82 110 -87 113
-4 3 -39 -2 -77 -12 -67 -18 -68 -17 -98 4 -38 27 -41 27 -46 0 l-4 -23 -2 23
c-1 17 -7 22 -28 23 -16 1 -39 3 -52 4 -41 4 -93 -15 -158 -57 -52 -33 -69
-39 -95 -34 -18 3 -62 10 -98 15 -36 5 -85 17 -110 26 -28 11 -80 18 -135 20
-78 2 -91 5 -103 24 -11 16 -25 21 -57 21 -24 0 -67 5 -95 12 -43 10 -54 17
-62 39 -7 19 -18 29 -41 33 -18 3 -43 8 -57 11 -113 23 -247 -30 -305 -119
-17 -25 -16 -29 4 -76 20 -46 20 -52 6 -80 -17 -34 -60 -59 -90 -52 -11 2 -31
12 -45 22 -54 38 -118 63 -204 81 -111 23 -140 42 -144 95 -3 39 -3 39 -85 71
-113 44 -152 53 -227 53 -87 0 -166 35 -182 81 -10 28 -14 31 -44 26 -23 -4
-37 -1 -46 10 -11 13 -7 21 28 52 63 55 83 95 73 139 -4 20 -14 41 -22 47 -22
16 -30 52 -14 62 8 4 29 36 46 70 l31 63 -25 -10 c-14 -5 -39 -17 -55 -25 -29
-15 -31 -15 -42 10 -10 23 -26 31 -78 39 -8 2 -28 1 -45 -1z m83 -85 c6 -18
16 -58 23 -88 7 -31 20 -61 31 -68 10 -7 18 -22 18 -32 0 -19 -55 -82 -96
-110 -32 -23 -22 -91 16 -113 15 -10 37 -17 49 -17 11 0 25 -9 31 -21 18 -33
126 -79 186 -79 71 0 144 -15 225 -47 65 -25 69 -28 69 -59 0 -57 56 -91 192
-118 74 -15 170 -54 183 -76 10 -16 84 -32 116 -25 78 17 123 104 95 184 -17
52 -14 62 27 94 51 39 128 60 190 52 64 -8 73 -13 85 -45 7 -20 21 -27 88 -41
43 -10 91 -18 105 -18 18 -1 29 -9 38 -27 10 -24 15 -25 49 -18 60 12 140 4
221 -21 42 -14 86 -22 99 -19 12 4 40 -1 62 -10 52 -20 79 -14 158 37 45 28
77 41 113 45 44 4 49 3 49 -16 0 -28 79 -61 95 -39 5 7 15 12 22 10 6 -2 38 3
71 11 33 9 62 16 65 16 3 0 33 -39 67 -87 l63 -87 -19 -92 -18 -93 -28 21
c-16 11 -36 32 -46 46 -9 15 -29 43 -44 62 -15 19 -40 59 -56 87 l-28 53 -34
-29 -34 -28 26 -41 c15 -22 34 -56 42 -76 8 -20 40 -62 69 -94 30 -31 58 -68
62 -82 4 -14 18 -39 31 -56 13 -17 24 -38 24 -47 0 -9 13 -31 29 -49 15 -18
36 -48 45 -66 30 -59 129 -207 146 -219 10 -7 19 -31 22 -58 9 -74 53 -134
128 -175 55 -30 66 -40 68 -65 2 -17 15 -45 30 -64 20 -28 26 -47 28 -100 2
-66 28 -155 61 -212 10 -17 48 -50 85 -74 83 -54 128 -121 151 -223 18 -78 57
-142 87 -142 10 0 27 -15 38 -33 16 -28 30 -37 82 -51 58 -17 75 -29 201 -143
75 -68 140 -134 143 -146 3 -12 4 -22 3 -22 -1 -1 -17 -11 -36 -22 l-33 -20
61 -47 c33 -26 67 -56 75 -67 23 -34 78 -69 108 -69 32 0 102 32 135 62 14 13
28 18 42 13 28 -8 87 11 129 43 37 28 115 59 178 71 52 9 130 54 171 100 18
19 35 32 38 30 9 -10 7 -164 -3 -190 -6 -15 -8 -44 -5 -65 4 -30 -4 -64 -35
-144 -40 -105 -91 -271 -113 -365 -7 -29 -26 -68 -47 -94 -20 -24 -46 -73 -59
-109 -13 -36 -48 -97 -77 -136 -29 -39 -66 -92 -82 -117 -42 -66 -124 -154
-161 -173 -17 -9 -51 -39 -75 -67 -24 -28 -60 -68 -82 -88 -54 -50 -142 -167
-233 -307 -17 -27 -53 -75 -79 -107 -42 -51 -52 -58 -78 -55 -31 3 -31 2 -36
-53 -4 -44 -18 -77 -70 -170 -36 -63 -79 -154 -96 -204 l-31 -90 43 -56 44
-56 -15 -36 c-39 -94 1 -292 73 -354 l36 -32 -18 -108 c-13 -72 -20 -160 -20
-264 l-1 -156 -37 -48 c-68 -86 -189 -191 -231 -199 -71 -13 -141 -57 -227
-142 -47 -46 -99 -94 -117 -106 -102 -73 -169 -137 -181 -173 -10 -35 -9 -41
13 -67 17 -19 25 -43 26 -69 1 -21 2 -42 4 -46 14 -55 14 -83 1 -122 -9 -24
-16 -56 -16 -70 0 -40 -50 -85 -128 -114 -167 -64 -186 -74 -224 -124 l-38
-48 25 -9 c14 -6 25 -15 25 -22 0 -7 -20 -52 -45 -101 -39 -80 -49 -92 -86
-109 -44 -19 -144 -111 -194 -177 -42 -57 -257 -217 -364 -272 -70 -36 -108
-50 -150 -53 -31 -2 -62 -9 -69 -15 -22 -17 -100 -27 -249 -32 -88 -3 -156
-10 -180 -19 -21 -8 -67 -17 -102 -20 -36 -3 -74 -12 -85 -19 -27 -17 -58 -10
-122 27 -59 34 -95 84 -70 98 11 6 16 23 16 52 0 37 -7 50 -54 105 -30 34 -57
74 -61 89 -3 14 -14 37 -24 51 -10 14 -21 38 -25 53 -3 15 -25 42 -48 60 -105
83 -153 163 -181 303 -5 28 -18 71 -28 97 -12 30 -20 80 -23 140 -3 101 -16
139 -53 163 -12 9 -23 22 -23 29 0 8 -16 33 -35 56 -19 23 -35 48 -35 55 0 18
-107 175 -145 212 -18 18 -39 48 -45 68 -16 48 -7 212 14 253 9 17 16 37 16
45 0 26 63 211 79 234 9 12 28 27 43 33 55 24 102 125 102 220 0 56 -4 71 -30
106 -16 22 -40 64 -53 92 l-24 52 23 25 c22 23 22 28 11 66 -7 22 -21 55 -32
72 -10 18 -19 40 -19 50 0 23 -44 110 -64 126 -9 8 -16 23 -16 35 0 12 -7 31
-15 42 -8 10 -15 33 -15 49 0 31 -9 45 -86 146 -47 62 -197 209 -212 209 -16
0 -103 126 -127 184 l-22 54 27 16 c28 16 40 53 40 121 0 17 11 47 25 67 24
36 24 36 4 49 l-20 14 20 45 c11 25 21 56 21 69 0 14 7 50 16 80 l15 56 -43
67 c-32 49 -49 67 -66 67 -23 1 -26 5 -36 54 l-7 28 -102 -6 c-56 -3 -141 -8
-190 -12 -111 -8 -152 10 -168 72 -31 125 -71 183 -149 217 -37 16 -67 19
-175 19 -144 -1 -229 -15 -261 -43 -13 -12 -36 -18 -65 -18 -30 0 -61 -10 -99
-31 -30 -17 -86 -38 -124 -46 -39 -8 -79 -21 -89 -28 -17 -12 -24 -12 -46 -1
-14 7 -64 26 -111 42 -80 27 -93 29 -225 26 -121 -2 -144 -5 -167 -22 -15 -11
-43 -20 -64 -20 -21 0 -48 -9 -66 -21 -29 -21 -30 -21 -75 -4 -52 20 -177 126
-244 206 -24 30 -51 58 -59 63 -8 5 -40 34 -71 65 -30 31 -76 70 -101 87 -80
56 -118 124 -118 216 0 59 -30 123 -91 191 -23 27 -55 75 -70 107 -15 31 -36
64 -47 72 -15 10 -22 27 -24 63 -3 49 -4 50 -41 56 -21 3 -50 18 -66 33 -27
26 -28 28 -17 84 16 84 13 205 -6 234 -15 23 -14 26 24 68 58 67 78 101 78
138 0 18 15 67 34 108 46 99 64 206 47 275 -12 47 -12 52 7 72 11 12 22 40 24
62 4 33 -1 49 -29 93 l-34 54 17 51 c10 33 29 62 49 79 18 15 49 60 70 100 26
49 62 96 110 143 50 49 86 96 119 158 42 77 53 90 94 110 28 13 55 36 67 55
62 101 56 97 120 103 71 8 121 28 153 62 13 14 35 28 50 32 37 9 129 92 160
143 21 37 26 59 26 113 1 67 2 69 47 116 26 26 50 57 54 68 10 29 110 114 142
120 111 24 180 79 246 198 40 71 50 78 66 49 5 -10 27 -30 48 -44 33 -22 49
-26 121 -27 57 0 90 -5 105 -16 12 -8 33 -15 47 -15 43 0 123 31 148 56 17 18
34 24 63 24 28 0 61 11 102 34 49 28 82 37 157 47 161 20 283 22 325 4 47 -19
94 -19 122 0 18 13 30 14 66 4 32 -8 51 -8 65 0 13 7 31 7 53 1 53 -15 99 -12
126 10 16 12 41 20 64 20 34 0 38 -3 47 -32z"/>
</g>
</svg>
